HIERARCHY
ROOT Hips
{
	OFFSET	0.00	0.00	0.00
	CHANNELS 6 Xposition Yposition Zposition Zrotation Xrotation Yrotation
	JOINT LeftUpLeg
	{
		OFFSET	 0.126116	-0.014019	-0.065224
		CHANNELS 3 Zrotation Xrotation Yrotation
		JOINT LeftLeg
		{
			OFFSET	 0.000000	 0.000000	 0.569914
			CHANNELS 3 Zrotation Xrotation Yrotation
			JOINT LeftFoot
			{
				OFFSET	 0.000000	 0.000000	 0.544423
				CHANNELS 3 Zrotation Xrotation Yrotation
				JOINT LeftToeBase
				{
					OFFSET	 0.000000	 0.000000	 0.207117
					CHANNELS 3 Zrotation Xrotation Yrotation
					End Site
					{
						OFFSET	 0.000000	 0.000000	 0.207117
					}
				}
			}
		}
	}
	JOINT RightUpLeg
	{
		OFFSET	-0.124023	-0.008373	-0.065224
		CHANNELS 3 Zrotation Xrotation Yrotation
		JOINT RightLeg
		{
			OFFSET	 0.000000	 0.000000	 0.570047
			CHANNELS 3 Zrotation Xrotation Yrotation
			JOINT RightFoot
			{
				OFFSET	 0.000000	 0.000000	 0.544354
				CHANNELS 3 Zrotation Xrotation Yrotation
				JOINT RightToeBase
				{
					OFFSET	 0.000000	 0.000000	 0.207540
					CHANNELS 3 Zrotation Xrotation Yrotation
					End Site
					{
						OFFSET	 0.000000	 0.000000	 0.207540
					}
				}
			}
		}
	}
	JOINT Spine
	{
		OFFSET	 0.000184	-0.007763	 0.117403
		CHANNELS 3 Zrotation Xrotation Yrotation
		JOINT Spine1
		{
			OFFSET	 0.000000	 0.000000	 0.137269
			CHANNELS 3 Zrotation Xrotation Yrotation
			JOINT Spine2
			{
				OFFSET	 0.000000	 0.000000	 0.156879
				CHANNELS 3 Zrotation Xrotation Yrotation
				JOINT LeftShoulder
				{
					OFFSET	 0.080501	-0.002496	 0.160144
					CHANNELS 3 Zrotation Xrotation Yrotation
					JOINT LeftArm
					{
						OFFSET	 0.000000	 0.000000	 0.164363
						CHANNELS 3 Zrotation Xrotation Yrotation
						JOINT LeftForeArm
						{
							OFFSET	 0.000000	 0.000000	 0.364576
							CHANNELS 3 Zrotation Xrotation Yrotation
							JOINT LeftHand
							{
								OFFSET	 0.000000	 0.000000	 0.360812
								CHANNELS 3 Zrotation Xrotation Yrotation
								JOINT LeftHandIndex1
								{
									OFFSET	 0.000000	 0.000000	 0.086006
									CHANNELS 3 Zrotation Xrotation Yrotation
									JOINT LeftHandIndex2
									{
										OFFSET	 0.000000	 0.000000	 0.047237
										CHANNELS 3 Zrotation Xrotation Yrotation
										JOINT LeftHandIndex3
										{
											OFFSET	-0.004284	-0.000551	 0.038165
											CHANNELS 3 Zrotation Xrotation Yrotation
											End Site
											{
												OFFSET	-0.004284	-0.000551	 0.038165
											}
										}
									}
								}
							}
						}
					}
				}
				JOINT Neck
				{
					OFFSET	 0.000000	 0.000000	 0.176489
					CHANNELS 3 Zrotation Xrotation Yrotation
					JOINT Head
					{
						OFFSET	 0.000000	-0.001747	 0.077940
						CHANNELS 3 Zrotation Xrotation Yrotation
						End Site
						{
							OFFSET	 0.000000	-0.001747	 0.077940
						}
					}
				}
				JOINT RightShoulder
				{
					OFFSET	-0.080363	 0.000306	 0.159706
					CHANNELS 3 Zrotation Xrotation Yrotation
					JOINT RightArm
					{
						OFFSET	 0.000000	 0.000000	 0.164196
						CHANNELS 3 Zrotation Xrotation Yrotation
						JOINT RightForeArm
						{
							OFFSET	 0.000000	 0.000000	 0.365611
							CHANNELS 3 Zrotation Xrotation Yrotation
							JOINT RightHand
							{
								OFFSET	 0.000000	 0.000000	 0.360648
								CHANNELS 3 Zrotation Xrotation Yrotation
								JOINT RightHandIndex1
								{
									OFFSET	 0.000000	 0.000000	 0.069977
									CHANNELS 3 Zrotation Xrotation Yrotation
									JOINT RightHandIndex2
									{
										OFFSET	 0.000000	 0.000000	 0.052305
										CHANNELS 3 Zrotation Xrotation Yrotation
										JOINT RightHandIndex3
										{
											OFFSET	 0.009002	-0.000782	 0.042196
											CHANNELS 3 Zrotation Xrotation Yrotation
											End Site
											{
												OFFSET	 0.009002	-0.000782	 0.042196
											}
										}
									}
								}
							}
						}
					}
				}
			}
		}
	}
}
MOTION
Frames:    7
Frame Time: 0.03333334
-0.462787	-0.032723	 1.275858	 179.228200	-2.563803	 5.068619	-9.460803	-1.010289	 179.696000	-6.870930	-16.439130	-2.114247	 23.975990	 73.532090	-37.455480	-2.385833	 28.452760	 0.000004	 45.424190	-0.865938	 170.296200	 1.999464	-0.510594	 0.004260	-3.215172	 59.758440	 19.287520	 2.384659	 28.388700	-0.000001	-10.898660	 7.608356	-6.750119	-3.799831	 5.487519	-14.900490	 16.095690	 0.345320	 27.066940	-91.776200	 78.527420	-180.000000	-75.744060	 4.958900	-9.305362	 1.372552	-2.023741	-31.036560	-0.875277	-38.774720	-2.040031	-4.130319	 21.525730	 0.991547	-5.167930	 0.731704	 3.519349	-1.378229	 35.397820	-2.634230	-2.553929	 0.290946	 1.402999	-8.690653	-27.124990	-10.343980	 89.782070	 78.203870	 180.000000	-31.758090	-8.938962	-13.626030	-14.238880	-8.247014	 44.915810	 37.930920	 18.376490	 123.299700	 5.716227	 19.173190	-3.685159	 5.027444	 0.246877	-9.377972	-2.350882	 35.473990	 5.254307
-0.463721	-0.033057	 1.274996	 179.444900	-2.648145	 6.141306	-4.659408	-3.500273	 178.207400	-9.602666	-22.200400	-3.875363	 34.932860	 76.641620	-46.648690	-2.385833	 28.452760	 0.000004	 44.345500	-5.057882	 169.933000	 3.325183	-8.730715	 0.273698	-8.647502	 62.145020	 24.103010	 2.384659	 28.388700	-0.000001	-10.693140	 7.757277	-8.593926	-4.394359	 7.384407	-14.537890	 16.754760	-2.567484	 28.187710	-91.776180	 78.527400	-180.000000	-84.009540	 12.829640	 8.373252	-0.756983	-2.466892	-63.502720	-1.837040	-37.478070	-2.570718	-4.130319	 21.525730	 0.991547	-5.167930	 0.731704	 3.519349	-1.378229	 35.397820	-2.634230	-3.135991	 1.186026	 2.097723	-10.170690	-30.308610	-13.303230	 89.782140	 78.203890	 180.000000	-35.668320	-10.551170	-20.650870	-10.264480	-11.662290	 69.980870	 37.909000	 18.010890	 126.951800	 5.716227	 19.173190	-3.685159	 5.027444	 0.246877	-9.377972	-2.350882	 35.473990	 5.254307
-0.464738	-0.033926	 1.271754	 179.846200	-1.943954	 6.209733	-6.205930	-7.492455	 178.808300	-10.269560	-30.323420	-5.517321	 49.590710	 80.794550	-61.628940	-2.385833	 28.452760	 0.000004	 42.639470	-10.932750	 171.480600	 3.646950	-22.038250	 0.797409	-9.546912	 70.066830	 24.657550	 2.384659	 28.388700	-0.000001	-11.959360	 6.813326	-9.088621	-5.586001	 8.840943	-14.295380	 17.153230	-3.430934	 28.651670	-91.776180	 78.527420	-180.000000	-70.447900	 23.084480	 28.575470	-2.888914	-2.798514	-107.886000	-1.704201	-38.289380	-2.615548	-4.130319	 21.525730	 0.991547	-5.167930	 0.731704	 3.519349	-1.378229	 35.397820	-2.634230	-3.134508	 1.143445	 2.368695	-10.241080	-30.090960	-14.152650	 89.782110	 78.203900	 180.000000	-16.252940	-0.047039	-16.473260	-2.575984	-11.407460	 107.073800	 34.296510	 14.699820	 81.540570	 5.716227	 19.173190	-3.685159	 5.027444	 0.246877	-9.377972	-2.350882	 35.473990	 5.254307
-0.466462	-0.035391	 1.266366	-179.564100	-0.937730	 6.001999	-7.419743	-11.987390	-179.981600	-11.912020	-39.616510	-8.028769	 87.728450	 83.169420	-100.010500	-2.385833	 28.452760	 0.000004	 41.470390	-15.419660	 174.219000	 4.247230	-33.597370	 1.508438	-9.597165	 77.711880	 24.073720	 2.384659	 28.388700	-0.000001	-13.999330	 5.559454	-9.276579	-7.312274	 10.431460	-13.977960	 17.374510	-3.989006	 28.879870	-91.776240	 78.527400	-180.000000	-2.942503	 52.933160	-11.545230	-3.836176	-2.329924	-128.467100	-1.723746	-39.004260	-2.652445	-4.130319	 21.525730	 0.991547	-5.167930	 0.731704	 3.519349	-1.378229	 35.397820	-2.634230	-3.055363	 0.665891	 1.910819	-10.082030	-29.436090	-13.429300	 89.782030	 78.203920	-179.999900	-29.946520	 42.941560	 32.773510	-2.124844	-9.397784	 112.804200	 6.603129	 14.297110	 27.345210	 5.716227	 19.173190	-3.685159	 5.027444	 0.246877	-9.377972	-2.350882	 35.473990	 5.254307
-0.469137	-0.037168	 1.261619	-178.669600	-0.314412	 5.616525	-9.283244	-14.744290	-178.501600	-13.172690	-45.684850	-9.919215	 120.216700	 82.103920	-132.857500	-2.385833	 28.452760	 0.000004	 40.294310	-17.477270	 176.712300	 4.942251	-40.606390	 2.227207	-8.502472	 82.636060	 22.458710	 2.384659	 28.388700	-0.000001	-16.145590	 4.557816	-8.918743	-8.496744	 11.338570	-13.378420	 16.968160	-3.377630	 28.141070	-91.776240	 78.527380	-180.000000	 50.208690	 47.408290	-79.850810	-2.130708	-2.960123	-92.796520	-1.798878	-39.812960	-2.692824	-4.130319	 21.525730	 0.991547	-5.167930	 0.731704	 3.519349	-1.378229	 35.397820	-2.634230	-2.971676	-0.507766	 0.152693	-9.468811	-27.663140	-9.399220	 89.782160	 78.203890	 179.999900	-65.213120	 39.431910	 96.086940	-10.039640	-9.767076	 67.662520	-11.575710	 0.270718	 27.363690	 5.716227	 19.173190	-3.685159	 5.027444	 0.246877	-9.377972	-2.350882	 35.473990	 5.254307
-0.476738	-0.039490	 1.260521	-177.897200	-0.246420	 5.302455	-11.659490	-15.205430	-177.360200	-13.050840	-46.407080	-9.947401	 119.986800	 82.015420	-132.867400	-2.385833	 28.452760	 0.000004	 38.468360	-17.560690	 177.858500	 5.426221	-42.315830	 2.630173	-7.392840	 83.132840	 21.096890	 2.384659	 28.388700	-0.000001	-16.572650	 4.039172	-8.843616	-8.841582	 12.302900	-12.501130	 17.114810	-4.560611	 28.286160	-91.776140	 78.527350	 180.000000	 53.419940	 45.186810	-88.159580	-1.524937	-2.839556	-80.769020	-1.988818	-40.603500	-2.756510	-4.130319	 21.525730	 0.991547	-5.167930	 0.731704	 3.519349	-1.378229	 35.397820	-2.634230	-3.695518	 1.418064	 1.691218	-10.533270	-29.530450	-12.945370	 89.782080	 78.203890	-180.000000	-69.158070	 37.562180	 108.005900	-12.573530	-8.222153	 51.363670	-11.836910	-7.476503	 32.468950	 5.716227	 19.173190	-3.685159	 5.027444	 0.246877	-9.377972	-2.350882	 35.473990	 5.254307
-0.486147	-0.041938	 1.260930	-176.913500	-0.611434	 5.626798	-14.186800	-14.500430	-177.086700	-12.255670	-44.998340	-9.138768	 110.606700	 82.716970	-123.672000	-2.385833	 28.452760	 0.000004	 36.353890	-17.290680	 177.679900	 5.963116	-42.003680	 2.974738	-7.124496	 81.035930	 20.502620	 2.384659	 28.388700	-0.000001	-16.602250	 4.304297	-8.922407	-8.135468	 12.243730	-11.943450	 17.032600	-4.867940	 28.161380	-91.776200	 78.527420	-180.000000	 47.991840	 46.766440	-76.662110	-2.136178	-2.868190	-92.995050	-2.097835	-41.812330	-2.821248	-4.130319	 21.525730	 0.991547	-5.167930	 0.731704	 3.519349	-1.378229	 35.397820	-2.634230	-4.063741	 2.280983	 2.464148	-10.973400	-29.940020	-14.490750	 89.782140	 78.203820	 180.000000	-63.864230	 40.939190	 93.331950	-9.750932	-9.735606	 69.078890	-9.632016	-5.377630	 27.241520	 5.716227	 19.173190	-3.685159	 5.027444	 0.246877	-9.377972	-2.350882	 35.473990	 5.254307
